{"title":"The Sick House 2008 DVDRip Xvid BigPerm LKRG","uid":6204454,"size":934840458,"categoryP":"video","categoryS":"movies","magnet":"?xt=urn:btih:70c9c493ccd94d9f800943058a30e1008ed5d706&amp;dn=The+Sick+House+2008+DVDRip+Xvid+BigPerm+LKRG&amp;tr=udp%3A%2F%2Ftracker.openbittorrent.com%3A80&amp;tr=udp%3A%2F%2Fopen.demonii.com%3A1337&amp;tr=udp%3A%2F%2Ftracker.coppersurfer.tk%3A6969&amp;tr=udp%3A%2F%2Fexodus.desync.com%3A6969","seeders":1,"leechers":1,"uploader":"neon","files":-1,"time":1298742834,"description":"Plot\n\nTerror lurks in the old orphanage, beneath a disused London\nhospital - a Seventeeth Century malevolence, the Plague Doctor, has\nreturned to complete his evil masterpiece...\n\n\nCast\n\nGina Philips ... Anna\nAlex Hassell ... Nick\nKellie Shirley ... Joolz\nAndrew Knott ... Steve\nJack Bailey ... Clive\nJohn Lebar ... Plague Doctor\nRomla Walker ... Professor Joan Holland\nTom Wontner ... Frank\nGregg Harris ... Dave\nStuart Brennan ... Classroom Student\nFinlay Carr ... Baby\nGillian MacGregor ... Jo\nSam Burke ... Ragged boy\nAbe Buckoke ... Ragged boy\nAlfie Owen ... Ragged boy\n\n\nGeneral Info\nEncoded By .......: BigPerm1828\nRuntime ..........: 1h 30mn\nFile Size ........: 892 MiB\nResolution .......: 704x396\nIMDb URL .........: http://www.imdb.com/title/tt0451197/\nLanguage .........: English\nOverall bit rate..: 1 382 Kbps\nVideo\nID : 0\nFormat : MPEG-4 Visual\nFormat profile : Advanced Simple@L5\nFormat settings, BVOP : Yes\nFormat settings, QPel : No\nFormat settings, GMC : No warppoints\nFormat settings, Matrix : Default (H.263)\nCodec ID : XVID\nCodec ID/Hint : XviD\nDuration : 1h 30mn\nBit rate : 928 Kbps\nWidth : 704 pixels\nHeight : 396 pixels\nDisplay aspect ratio : 16:9\nFrame rate : 29.970 fps\nColor space : YUV\nChroma subsampling : 4:2:0\nBit depth : 8 bits\nScan type : Progressive\nCompression mode : Lossy\nBits/(Pixel*Frame) : 0.111\nStream size : 598 MiB (67%)\nWriting library : XviD 1.2.1 (UTC 2008-12-04)\n\nAudio\nID : 1\nFormat : AC-3\nFormat/Info : Audio Coding 3\nMode extension : CM (complete main)\nCodec ID : 2000\nDuration : 1h 30mn\nBit rate mode : Constant\nBit rate : 448 Kbps\nChannel(s) : 6 channels\nChannel positions : Front: L C R, Side: L R, LFE\nSampling rate : 48.0 KHz\nBit depth : 16 bits\nCompression mode : Lossy\nVideo delay : 33ms\nStream size : 289 MiB (32%)\nAlignment : Split accross interleaves\nInterleave, duration : 500 ms (14.98 video frames)\nInterleave, preload duration : 500 ms\nLanguage : English\n\n\nScreens\n &lt;a href=&quot;\nhttp://leetleech.org/images/07781118228707908648.png&quot; rel=&quot;nofollow&quot; target=&quot;_NEW&quot;&gt;\nhttp://leetleech.org/images/07781118228707908648.png&lt;/a&gt; &lt;a href=&quot;\nhttp://leetleech.org/images/59293480209640956259.png&quot; rel=&quot;nofollow&quot; target=&quot;_NEW&quot;&gt;\nhttp://leetleech.org/images/59293480209640956259.png&lt;/a&gt; &lt;a href=&quot;\nhttp://leetleech.org/images/04304895916428524089.png&quot; rel=&quot;nofollow&quot; target=&quot;_NEW&quot;&gt;\nhttp://leetleech.org/images/04304895916428524089.png&lt;/a&gt; &lt;a href=&quot;\nhttp://leetleech.org/images/38625452169849337935.png&quot; rel=&quot;nofollow&quot; target=&quot;_NEW&quot;&gt;\nhttp://leetleech.org/images/38625452169849337935.png&lt;/a&gt;\n\n \n &lt;a href=&quot; http://www.imdb.com/title/tt0451197/&quot; rel=&quot;nofollow&quot; target=&quot;_NEW&quot;&gt; http://www.imdb.com/title/tt0451197/&lt;/a&gt; \n \nThans to BigPerm","torrent":{"xt":"urn:btih:70c9c493ccd94d9f800943058a30e1008ed5d706","amp;dn":"The+Sick+House+2008+DVDRip+Xvid+BigPerm+LKRG","amp;tr":["udp%3A%2F%2Ftracker.openbittorrent.com%3A80","udp%3A%2F%2Fopen.demonii.com%3A1337","udp%3A%2F%2Ftracker.coppersurfer.tk%3A6969","udp%3A%2F%2Fexodus.desync.com%3A6969"],"infoHash":"70c9c493ccd94d9f800943058a30e1008ed5d706","infoHashBuffer":{"type":"Buffer","data":[112,201,196,147,204,217,77,159,128,9,67,5,138,48,225,0,142,213,215,6]},"announce":[],"urlList":[]}}